<svg version="1.2" xmlns="http://www.w3.org/2000/svg" viewBox="0 0 324 208" width="324" height="208"><defs><clipPath clipPathUnits="userSpaceOnUse" id="cp1"><path d="m-213-226h750v750h-750z"/></clipPath></defs><style>.a{fill:#404041}.b{fill:#f4f4f4}.c{fill:#008037}.d{fill:#fd6767}.e{fill:#8c52ff}</style><g clip-path="url(#cp1)"><path class="a" d="m323.5 140.6v0.1 0.2 0.2 0.5 1l-0.1 2q-0.1 2-0.2 3.9l-0.3 8c-0.3 5.2-0.6 10.5-1 15.8-0.3 5.3-0.8 10.6-1.2 15.8-0.3 2.7-0.6 5.3-0.8 8-0.3 2.6-0.7 5.2-1 7.9-0.3-2.7-0.7-5.3-0.9-7.9-0.3-2.7-0.6-5.3-0.8-8-0.5-5.2-1-10.5-1.3-15.8-0.4-5.3-0.7-10.6-0.9-15.8l-0.4-8q-0.1-1.9-0.2-3.9v-2-1l-0.1-0.5v-0.2-0.2-0.1c-3.1 0-2.2 0 0 0 0-0.5-0.1-1-0.2-1.5q-0.2-0.7-0.5-1.4c-0.5-0.8-1.2-1.6-2-2.2-0.8-0.5-1.8-0.9-2.7-1q-0.4-0.1-0.8-0.1c-0.1 0-0.6 0-1 0l-2.6 0.1-4.9 0.1-0.1-5v-4.6l-0.1-2v-0.6c0-0.2 0-0.4-0.1-0.4 0-0.1 0-0.2 0-0.4-0.4-1.7-1.5-3.2-3-4.1q-1.1-0.7-2.3-0.9c-0.5-0.1-0.8-0.1-1.4-0.1h-2.3-9.1l-10.7 0.1 6.9-8.7 1.2-1.6 1.1-1.6 0.9-1.8 0.8-1.9 0.5-1.9 0.4-1.9 0.3-2v-2l-0.1-2-0.3-2-0.5-2-0.7-1.8-0.9-1.9-1-1.7-1.2-1.6-1.3-1.5-0.1-0.1-0.2-0.1-0.4-0.5-0.9-0.8c-0.6-0.5-1-0.7-1.5-1.1-1.1-0.8-2.3-1.4-3.5-2q-1.8-0.8-3.8-1.3c-0.6-0.2-1.3-0.3-2-0.4-0.6-0.1-1.3-0.2-2-0.2l-2-0.1-2 0.2-2 0.3-2 0.6-1.9 0.7-1.9 0.9-1.7 1.1-1.7 1.2-6.5 4.9-1-7.8c-0.2-1.3-0.3-2.7-0.4-4.1 0-1.2 0-2.6-0.1-3.4-0.1-2.1-0.5-4.2-1.1-6.3-1.1-4.2-3.1-8.2-5.6-12-2.6-3.7-5.6-7.2-9-10.5-3.3-3.4-6.9-6.5-10.6-9.4-3.8-2.9-7.8-5.6-11.8-8.2q-6.1-3.9-12.5-7.4c-4.2-2.4-8.5-4.7-12.9-6.8-4.3-2.1-8.7-4.2-13.2-6.1 4.7 1.3 9.4 2.7 14 4.3 4.6 1.7 9.2 3.4 13.7 5.4q6.8 2.9 13.4 6.3c4.3 2.3 8.6 4.8 12.8 7.6 8.3 5.4 16.2 11.9 22.5 20.2 3.2 4.2 5.8 8.9 7.6 14 0.8 2.5 1.4 5 1.7 7.7l0.3-0.2 2.8-1.2 2.8-0.8 2.9-0.6 2.9-0.4c1 0 1.9 0 2.9 0 1 0 2 0.1 3 0.2 0.9 0.2 1.9 0.3 2.9 0.5q2.9 0.7 5.6 1.9c1.8 0.8 3.5 1.7 5.2 2.8 0.8 0.7 1.8 1.4 2.5 1.9l0.9 0.9 0.5 0.4 0.2 0.2 0.3 0.3 0.1 0.1 2 2.2 1.8 2.4 1.6 2.5 1.3 2.7 1 2.8 0.8 2.9 0.5 2.9 0.2 3v3q-0.1 1.4-0.3 2.9c-0.2 1-0.4 2-0.6 2.9-0.3 1-0.6 2-0.9 2.9q-0.3 0.8-0.7 1.6h2.1c1 0 2.1 0.1 3.2 0.3 2.1 0.4 4.2 1.2 6 2.4 3.7 2.4 6.4 6.2 7.3 10.5 0.1 0.5 0.2 1.2 0.3 1.8 0 0.3 0 0.5 0 0.7l0.1 0.6v0.3 0.5 0.6 0.9q0.4 0 0.9 0.1c2.5 0.4 4.8 1.5 6.8 3 2 1.4 3.6 3.4 4.7 5.6q0.8 1.7 1.2 3.5c0.3 1.2 0.4 2.4 0.4 3.6 2.2 0 3.2 0 0 0z"/><path fill-rule="evenodd" class="a" d="m147.1 4.3c4.6-1.6 9.3-3 14-4.3-4.5 1.9-8.9 4-13.2 6.2-4.4 2.1-8.7 4.4-12.9 6.7q-6.4 3.5-12.4 7.4c-4.1 2.7-8 5.4-11.8 8.3-3.8 2.9-7.4 6-10.7 9.3-3.3 3.3-6.4 6.8-8.9 10.6-2.5 3.8-4.5 7.8-5.6 11.9-0.6 2.1-1 4.2-1.1 6.3-0.1 0.5-0.1 1.1-0.1 1.6v1.8c0 1.4-0.2 2.8-0.3 4.2l-1 7.8-6.7-5-1.7-1.2-1.7-1-1.8-0.9-1.9-0.8-2-0.5-2-0.4-2-0.1h-2c-0.7 0.1-1.4 0.1-2 0.2-0.7 0.2-1.4 0.2-2 0.4q-2 0.5-3.8 1.3-1.9 0.9-3.5 2c-0.5 0.4-1.1 0.8-1.6 1.3l-1.3 1.2-1.6 1.8q-0.5 0.8-1.1 1.5l-1 1.7-0.9 1.8-0.7 1.9-0.5 1.9-0.3 2-0.1 2v2l0.2 2 0.4 1.9 0.6 1.9 0.8 1.9 0.9 1.8 1.1 1.6 1.2 1.6 6.9 8.7h-10.8l-9.1-0.1h-2.2-0.1-0.2-0.6c-0.3 0-0.3 0.1-0.4 0.1q0 0-0.1 0c-0.3 0.1-0.8 0.2-1.2 0.3q-0.6 0.3-1.2 0.6c-1.4 0.9-2.5 2.4-2.9 4.1q-0.2 0.6-0.2 1.3c0 0.1 0 0.6 0 1v1.1l-0.1 4.6-0.1 4.9h-4.8l-2.6-0.1h-0.6-0.1-0.3-0.7q-0.1 0.1-0.2 0.1c-0.1 0-0.4 0.1-0.6 0.1-0.3 0.1-0.5 0.2-0.7 0.2-0.5 0.2-0.9 0.4-1.3 0.7-0.8 0.6-1.5 1.3-2 2.2q-0.4 0.7-0.6 1.4c-0.1 0.5-0.2 0.9-0.2 1.4 1.4 0 0.7 0 0 0q0 0.1 0 0.1v0.2 0.5l-0.1 0.9v1.7l-0.2 3.6-0.4 7.1c-0.2 4.7-0.6 9.5-0.9 14.2-0.3 4.7-0.8 9.5-1.2 14.2-0.5 4.7-1.1 9.5-1.7 14.2-0.7-4.7-1.3-9.5-1.8-14.2-0.4-4.7-0.9-9.5-1.2-14.2-0.3-4.7-0.7-9.5-0.9-14.2l-0.4-7.1-0.2-3.6v-1.7l-0.1-0.9v-0.5-0.2q0 0 0-0.1c-0.7 0-1.4 0 0 0 0-1.2 0.1-2.3 0.4-3.5q0.4-1.8 1.2-3.5c1.1-2.2 2.7-4.1 4.7-5.6 1-0.8 2.1-1.4 3.2-1.9 0.6-0.2 1.1-0.5 1.7-0.6 0.7-0.2 1.2-0.4 2-0.5l0.9-0.1-0.1-0.9c0-0.5 0-0.7 0-1.3q0.1-1.6 0.4-3.2c0.9-4.3 3.6-8.1 7.2-10.5q1.4-0.9 2.9-1.5c1.1-0.4 2.1-0.7 3.2-0.9l1-0.2c0.3 0 0.6 0 0.8 0l0.5-0.1h0.9 2q-0.3-0.8-0.6-1.6c-0.4-1-0.6-1.9-0.9-2.9q-0.3-1.4-0.6-2.9-0.2-1.5-0.4-2.9v-3l0.2-3 0.5-2.9 0.8-2.9 1.1-2.8 1.3-2.7 1.5-2.5q1-1.4 2-2.6l1.7-1.9 0.1-0.1 0.2-0.2 0.1-0.1 0.2-0.2 0.6-0.5 1.1-1c0.8-0.7 1.6-1.2 2.4-1.8q2.4-1.7 5.2-2.9 2.7-1.1 5.6-1.8c1-0.2 1.9-0.4 2.9-0.5 1-0.1 2-0.2 3-0.3 0.9 0 1.9 0.1 2.9 0.1l2.9 0.3 2.9 0.6 2.8 0.9 2.8 1.1 0.3 0.2c0.3-2.6 0.9-5.1 1.7-7.6 1.7-5.1 4.4-9.8 7.5-14 6.3-8.3 14.2-14.8 22.5-20.2q6.3-4.1 12.8-7.6 6.6-3.4 13.4-6.3c4.5-2 9.1-3.7 13.7-5.4zm-131.5 130.1c-0.1 0 0 0 0 0zm15.1-17.9q-0.1 0 0 0z"/><g style="opacity:.6"><path fill-rule="evenodd" class="b" d="m167.8 143.4c0 4.7 0 9.4 0 14.4-7.2 0-13.9 0-21.1 0 0-4.8 0-9.5 0-14.5-20-5.8-33.6-17.1-36.1-39.4 7.8 0 15.1 0 22.7 0 1.8 7 4.3 13.8 12.8 16.5 0-8.3 0-16.2 0-24.5-17.4-3.5-33.2-9.3-33.8-31-0.4-16.3 10.1-26.4 34.1-33.9 0-4.5 0-9.1 0-14.2 7.1 0 13.9 0 21.2 0 0 4.7 0 9.3 0 14.2 19.7 4.3 33.4 14 34.9 36.2-7.8 0-14.9 0-22.2 0-1.8-6.4-4.4-12.1-12.2-13.5 0 7.7 0 15 0 22.2 27.6 6.3 36.6 14.2 36.5 31.6-0.1 17.6-13.8 31.1-36.8 35.9zm0.3-44.3c0 7.5 0 14.6 0 21.7 9.4-1.2 15.2-5.9 14.8-11.8-0.4-5.7-5.8-9.4-14.8-9.9zm-21.5-45.4c-8 1.6-11.7 5.6-11.2 11.2 0.6 4.9 4.3 7.5 11.2 7.6 0-6.1 0-12.2 0-18.8z"/></g><path  d="m37.6 199h5.1v-12.7l4.7 12.7h4.2l4.7-12.6v12.6h5.1v-21.1h-6l-5.9 14.6-5.9-14.6h-6zm43.9-8.3c0-5.3-3.8-8.6-8.7-8.6-4.9 0-8.7 3.3-8.7 8.6 0 5.3 3.7 8.6 8.6 8.6 4.9 0 8.8-3.3 8.8-8.6zm-12.2 0c0-2.9 1.6-4.2 3.5-4.2 1.8 0 3.5 1.3 3.5 4.2 0 2.8-1.8 4.1-3.6 4.1-1.8 0-3.4-1.3-3.4-4.1zm26.5 8.3h5.1v-9.7c0-4.5-2.6-7.2-6.5-7.2-2.2 0-4 1-5.1 2.4v-2.2h-5.1v16.7h5.1v-9.1c0-2.2 1.3-3.5 3.2-3.5 2 0 3.3 1.3 3.3 3.5zm16-12.8c1.7 0 3.2 1 3.2 2.9h-6.5c0.3-1.9 1.6-2.9 3.3-2.9zm8 7.3h-5.4c-0.5 0.9-1.3 1.6-2.7 1.6-1.7 0-3-1-3.2-3.2h11.6c0.1-0.5 0.1-1 0.1-1.5 0-5.1-3.4-8.3-8.3-8.3-5 0-8.5 3.3-8.5 8.6 0 5.3 3.5 8.6 8.5 8.6 4.1 0 7.1-2.5 7.9-5.8zm10.8-0.7l-3.9-10.5h-5.7l6.8 16.2-3.8 8.5h5.5l10.5-24.7h-5.5zm17.6 6.3h5.1v-12.7l4.7 12.7h4.2l4.7-12.6v12.6h5.1v-21.1h-6l-5.9 14.6-5.9-14.6h-6zm26.5-8.4c0 5.3 3.3 8.7 7.3 8.7 2.5 0 4.3-1.2 5.2-2.7v2.4h5.2v-16.7h-5.2v2.3c-0.9-1.4-2.6-2.6-5.1-2.6-4.1 0-7.4 3.3-7.4 8.6zm12.5 0c0 2.7-1.7 4.2-3.6 4.2-2 0-3.7-1.5-3.7-4.2 0-2.6 1.7-4.1 3.7-4.1 1.9 0 3.6 1.5 3.6 4.1zm20.4 8.4h5.1v-9.8c0-4.5-2.6-7.1-6.4-7.1-2.3 0-4.1 1-5.1 2.4v-2.2h-5.1v16.7h5.1v-9.1c0-2.3 1.3-3.5 3.2-3.5 2 0 3.2 1.2 3.2 3.5zm7.7-8.4c0 5.3 3.2 8.7 7.3 8.7 2.5 0 4.3-1.2 5.2-2.6v2.3h5.1v-16.7h-5.1v2.4c-0.9-1.5-2.7-2.6-5.1-2.6-4.2 0-7.4 3.2-7.4 8.5zm12.5 0.1c0 2.6-1.7 4.1-3.6 4.1-2 0-3.7-1.5-3.7-4.2 0-2.6 1.7-4.1 3.7-4.1 1.9 0 3.6 1.5 3.6 4.2zm7.8-0.1c0 5.3 3.3 8.7 7.4 8.7 2.5 0 4.3-1.2 5.2-2.7v2.4c0 2.8-1.5 3.8-3.5 3.8-1.8 0-3-0.8-3.4-2h-5c0.4 4 3.7 6.5 8.6 6.5 5.8 0 8.4-3.8 8.4-8.3v-16.7h-5.1v2.4c-0.9-1.5-2.7-2.6-5.2-2.6-4.1 0-7.4 3.2-7.4 8.5zm12.6 0.1c0 2.6-1.7 4.1-3.7 4.1-1.9 0-3.6-1.5-3.6-4.2 0-2.6 1.7-4.1 3.6-4.1 2 0 3.7 1.5 3.7 4.2zm16.2-4.5c1.7 0 3.2 1 3.2 2.8h-6.5c0.3-1.8 1.6-2.8 3.3-2.8zm8 7.3h-5.4c-0.5 0.9-1.3 1.6-2.7 1.6-1.7 0-3-1-3.2-3.2h11.6c0.1-0.5 0.1-1 0.1-1.5 0-5.1-3.4-8.3-8.3-8.3-5 0-8.5 3.2-8.5 8.6 0 5.3 3.6 8.6 8.5 8.6 4.1 0 7.1-2.6 7.9-5.8zm8.2-2.2c0-2.9 1.5-3.8 3.9-3.8h1.4v-5.4c-2.3 0-4.1 1.2-5.3 3v-2.8h-5.1v16.7h5.1z"/><path class="c" d="m89.8 170.5c-2 0-3.6-1.6-3.6-3.6 0-2 1.6-3.6 3.6-3.6 2 0 3.6 1.6 3.6 3.6 0 2-1.6 3.6-3.6 3.6zm33.1-30.4c0.6-0.5 1.5-0.4 1.9 0.2 0.5 0.6 0.4 1.5-0.2 1.9l-34 25.8c-0.6 0.4-1.5 0.3-1.9-0.3-0.5-0.6-0.3-1.4 0.3-1.9zm0.8 4.7c-2 0-3.6-1.6-3.6-3.6 0-2 1.6-3.6 3.6-3.6 2 0 3.6 1.6 3.6 3.6 0 2-1.6 3.6-3.6 3.6zm32.8-60.1c0.4-0.6 1.2-0.9 1.8-0.5 0.7 0.4 0.9 1.3 0.5 1.9l-34 55.8c-0.4 0.7-1.2 0.9-1.8 0.5-0.7-0.4-0.9-1.3-0.5-1.9zm1.2 4.3c-2 0-3.6-1.6-3.6-3.6 0-2 1.6-3.6 3.6-3.6 2 0 3.6 1.6 3.6 3.6 0 2-1.6 3.6-3.6 3.6zm34.6 12.4c0.6 0.3 0.9 1.1 0.5 1.8-0.3 0.7-1.1 0.9-1.8 0.6l-33.9-17.2c-0.7-0.3-1-1.1-0.6-1.8 0.3-0.7 1.1-0.9 1.8-0.6zm-0.6 4.8c-2 0-3.6-1.6-3.6-3.6 0-2 1.6-3.6 3.6-3.6 2 0 3.6 1.6 3.6 3.6 0 2-1.6 3.6-3.6 3.6zm33.8-9.2c0.7-0.1 1.4 0.4 1.5 1.1 0.1 0.8-0.4 1.5-1.2 1.6l-34 4.3c-0.7 0-1.4-0.5-1.5-1.2-0.1-0.8 0.5-1.4 1.2-1.5zm0.2 4.9c-2 0-3.6-1.6-3.6-3.6 0-2 1.6-3.6 3.6-3.6 2 0 3.6 1.6 3.6 3.6 0 2-1.6 3.6-3.6 3.6z"/><path class="d" d="m89.8 144.8c-2 0-3.6-1.7-3.6-3.7 0-2 1.6-3.6 3.6-3.6 2 0 3.6 1.6 3.6 3.6 0 2-1.6 3.7-3.6 3.7zm34.6 12.3c0.6 0.4 0.9 1.2 0.5 1.8-0.3 0.7-1.1 1-1.8 0.6l-33.9-17.1c-0.7-0.4-1-1.2-0.6-1.9 0.3-0.6 1.1-0.9 1.8-0.6zm-0.6 4.9c-2 0-3.6-1.7-3.6-3.7 0-2 1.6-3.6 3.6-3.6 2 0 3.6 1.6 3.6 3.6 0 2-1.6 3.7-3.6 3.7zm33-38.9c0.5-0.6 1.4-0.6 1.9-0.1 0.5 0.6 0.5 1.4 0 2l-34 34.3c-0.5 0.5-1.3 0.5-1.9 0-0.5-0.5-0.5-1.4 0-1.9zm1 4.6c-2 0-3.6-1.7-3.6-3.7 0-2 1.6-3.6 3.6-3.6 2 0 3.6 1.6 3.6 3.6 0 2-1.6 3.7-3.6 3.7zm34.3 5.8c0.8 0.2 1.2 1 0.9 1.7-0.2 0.7-1 1.1-1.7 0.9l-33.9-10.8c-0.7-0.2-1.1-0.9-0.9-1.7 0.2-0.7 1-1.1 1.7-0.8zm-0.4 4.9c-2 0-3.6-1.7-3.6-3.7 0-2 1.6-3.6 3.6-3.6 2 0 3.6 1.6 3.6 3.6 0 2-1.6 3.7-3.6 3.7zm32.7-79.3c0.3-0.7 1.1-1 1.8-0.7 0.7 0.3 1 1.1 0.7 1.8l-34 75.1c-0.3 0.7-1.1 1-1.8 0.7-0.7-0.3-1-1.1-0.7-1.8zm1.3 4.2c-2 0-3.6-1.7-3.6-3.7 0-2 1.6-3.6 3.6-3.6 2 0 3.6 1.6 3.6 3.6 0 2-1.6 3.7-3.6 3.7z"/><path class="e" d="m89.8 131.9c-2 0-3.6-1.6-3.6-3.6 0-2 1.6-3.6 3.6-3.6 2 0 3.6 1.6 3.6 3.6 0 2-1.6 3.6-3.6 3.6zm33.1-30.5c0.6-0.4 1.5-0.3 1.9 0.3 0.5 0.6 0.4 1.4-0.2 1.9l-34 25.7c-0.6 0.5-1.5 0.4-1.9-0.2-0.5-0.6-0.3-1.5 0.3-1.9zm0.8 4.7c-2 0-3.6-1.6-3.6-3.6 0-2 1.6-3.6 3.6-3.6 2 0 3.6 1.6 3.6 3.6 0 2-1.6 3.6-3.6 3.6zm34.3 5.8c0.8 0.2 1.2 1 0.9 1.7-0.2 0.7-1 1.1-1.7 0.9l-33.9-10.7c-0.7-0.3-1.1-1-0.9-1.7 0.2-0.8 1-1.1 1.7-0.9zm-0.4 4.9c-2 0-3.6-1.6-3.6-3.6 0-2 1.6-3.6 3.6-3.6 2 0 3.6 1.6 3.6 3.6 0 2-1.6 3.6-3.6 3.6zm33-36.8c0.5-0.5 1.4-0.5 1.9 0 0.5 0.6 0.5 1.4 0 2l-34 32.2c-0.5 0.5-1.4 0.4-1.9-0.1-0.5-0.5-0.5-1.4 0-1.9zm1 4.6c-2 0-3.6-1.6-3.6-3.6 0-2 1.6-3.6 3.6-3.6 2 0 3.6 1.6 3.6 3.6 0 2-1.6 3.6-3.6 3.6zm33.8-9.3c0.7-0.1 1.4 0.5 1.5 1.2 0.1 0.7-0.4 1.4-1.2 1.5l-34 4.3c-0.7 0.1-1.4-0.4-1.5-1.2-0.1-0.7 0.5-1.4 1.2-1.5zm0.2 5c-2 0-3.6-1.6-3.6-3.6 0-2 1.6-3.6 3.6-3.6 2 0 3.6 1.6 3.6 3.6 0 2-1.6 3.6-3.6 3.6z"/></g></svg>